<svg xmlns="http://www.w3.org/2000/svg" width="144.159" height="44.165" viewBox="0 0 144.159 44.165"><defs><style>.a{fill:#1b75bb;}</style></defs><path class="a" d="M41.96,10.542l-.379-.379-.2-.2h0A18.473,18.473,0,0,0,10.31,23.465a18.151,18.151,0,0,0,.525,4.376v.088L4.417,23.757s-.525-.058-.379.438l.846.875,8.722,8.868,4.521,4.609,8.926,9.043h0l1.2,1.225.35.35L54.679,23.086Zm3.646,14.906c-.029.2-.029.408-.058.583a.263.263,0,0,1-.029.146,4.948,4.948,0,0,1-.117.642l-.029.117c-.058.233-.088.5-.146.729-.029.146-.088.35-.117.5-.029.117-.058.233-.088.379a10,10,0,0,1-.467,1.313,6.242,6.242,0,0,1-.292.642,5.069,5.069,0,0,1-.292.554,3.482,3.482,0,0,1-.233.467,3.483,3.483,0,0,1-.233.467.638.638,0,0,1-.088.146,2.38,2.38,0,0,1-.321.5.221.221,0,0,0-.058.117,5.156,5.156,0,0,1-.35.5c-.029.058-.088.117-.117.175a15.916,15.916,0,0,1-1.05,1.313,4.845,4.845,0,0,1-.379.408c-.088.117-.2.2-.321.35L34.9,41.609l-.117.117-1.6-1.867-3.53-4.113,4.813-4.2h0a10.242,10.242,0,1,0-13.331-1.138l.029.029a6.684,6.684,0,0,0,.671.613l9.918,9.16L34.113,42.4c-3,2.917-5.513,5.222-5.513,5.222s-2.655-2.83-5.688-5.98L22.5,41.2c-.175-.175-.379-.379-.525-.554l-5.017-5.134-.029-.029a16.751,16.751,0,0,1-3.88-6.1c-.175-.525-.35-1.05-.5-1.575a16.575,16.575,0,0,1-.525-4.2,16.8,16.8,0,0,1,33.6,0,6.6,6.6,0,0,1-.029.788A4.215,4.215,0,0,1,45.606,25.449ZM23.057,22.328l4.755.875.671-4.784.642,4.784,4.784-.846-4.346,2.1,2.246,4.288-3.355-3.471L25.1,28.716l2.275-4.259ZM61.271,15.56h4.9l4.784,11.785L75.682,15.56h4.872V32.566H76.411V22.357l-3.792,10.21H69.264L65.443,22.328V32.566H61.3V15.56Zm27.391,3.3a4.754,4.754,0,0,1,4.171,2.1V19.031h4.142V32.566H92.834v-1.9a4.78,4.78,0,0,1-4.2,2.1c-3.3,0-5.951-2.713-5.951-6.972C82.712,21.54,85.337,18.856,88.663,18.856Zm1.225,3.617A3.01,3.01,0,0,0,86.942,25.8c0,2.159,1.4,3.384,2.946,3.384,1.575,0,2.946-1.2,2.946-3.355S91.463,22.473,89.888,22.473Zm18.407-3.617c3.325,0,5.951,2.655,5.951,6.943,0,4.259-2.655,6.972-5.951,6.972a4.88,4.88,0,0,1-4.171-2.071v8.343H99.981V19.06h4.142v1.925A4.781,4.781,0,0,1,108.295,18.856Zm-1.225,3.617a3.036,3.036,0,0,0-2.946,3.355,3.036,3.036,0,0,0,2.946,3.355,3.067,3.067,0,0,0,2.975-3.384A3.015,3.015,0,0,0,107.069,22.473Zm17.211,6.972h-8.139V26.091l7.672-10.968h4.638V25.828h1.984v3.588h-1.984v3.15h-4.142V29.445Zm.292-3.588V19.673l-4.084,6.155h4.084Zm23.6-1.779c0,5.047-3.5,8.518-8.926,8.518h-6.388V15.56h6.388C144.671,15.56,148.171,19,148.171,24.078Zm-9.189,4.93c3.121,0,4.959-1.779,4.959-4.93s-1.838-4.959-4.959-4.959h-1.954v9.889Z" transform="translate(-4.012 -5)"/></svg>